<?xml version="1.0" encoding="UTF-8"?>
<svg width="16px" height="16px" viewBox="0 0 16 16" version="1.1" xmlns="http://www.w3.org/2000/svg" xmlns:xlink="http://www.w3.org/1999/xlink">
    <!-- Generator: Sketch 42 (36781) - http://www.bohemiancoding.com/sketch -->
    <title>icon_Pop-ups_close </title>
    <desc>Created with Sketch.</desc>
    <defs></defs>
    <g id="官网价格" stroke="none" stroke-width="1" fill="none" fill-rule="evenodd">
        <g id="01-05支付版本费用_尊享版_付款" transform="translate(-904.000000, -220.000000)" fill="#B2B2B2">
            <g id="Group-2" transform="translate(340.000000, 200.000000)">
                <path d="M565.555451,20 C565.558571,20.0030437 565.561677,20.0061118 565.564769,20.0092042 L571.855996,26.3004311 L578.147223,20.0092042 C578.150315,20.0061118 578.153423,20.0030438 578.156545,20 L579.55561,20 C579.557411,20.0017747 579.559208,20.0035577 579.560999,20.0053489 L579.706643,20.1509932 C580.095982,20.5403321 580.100874,21.1666836 579.702788,21.5647692 L573.411561,27.8559961 L579.702788,34.1472231 C580.094256,34.5386911 580.096812,35.1708305 579.706643,35.560999 L579.560999,35.7066433 C579.17166,36.0959822 578.545309,36.1008737 578.147223,35.7027881 L571.855996,29.4115611 L565.564769,35.7027881 C565.173301,36.0942561 564.541162,36.0968119 564.150993,35.7066433 L564.005349,35.560999 C564.003558,35.5592079 564.001775,35.5574118 564,35.5556107 L564,34.1565413 C564.003044,34.1534216 564.006112,34.1503154 564.009204,34.1472231 L570.300431,27.8559961 L564.009204,21.5647692 C564.006112,21.5616769 564.003044,21.5585695 564,21.5554474 L564,20.1563822 C564.001775,20.1545808 564.003558,20.1527845 564.005349,20.1509932 L564.150993,20.0053489 C564.152784,20.0035578 564.15458,20.0017748 564.156382,20 L565.555451,20 Z" id="icon_Pop-ups_close-"></path>
            </g>
        </g>
    </g>
</svg>