<?xml version="1.0" encoding="UTF-8"?>
<svg width="16px" height="16px" viewBox="0 0 16 16" version="1.1" xmlns="http://www.w3.org/2000/svg" xmlns:xlink="http://www.w3.org/1999/xlink">
    <!-- Generator: Sketch 46.2 (44496) - http://www.bohemiancoding.com/sketch -->
    <title>nav_workorder</title>
    <desc>Created with Sketch.</desc>
    <defs></defs>
    <g id="Symbols" stroke="none" stroke-width="1" fill="none" fill-rule="evenodd">
        <g id="nav_workorder">
            <rect id="Rectangle-2" x="0" y="0" width="16" height="16"></rect>
            <path d="M4,1 L4,2 L12,2 L12,1 L13,1 L13,1 C14.1045695,1 15,1.8954305 15,3 L15,14 C15,15.1045695 14.1045695,16 13,16 L3,16 C1.8954305,16 1,15.1045695 1,14 L1,3 L1,3 C1,1.8954305 1.8954305,1 3,1 L3,1 L4,1 Z M4.5,5 C4.22385763,5 4,5.22385763 4,5.5 C4,5.77614237 4.22385763,6 4.5,6 L11.5,6 C11.7761424,6 12,5.77614237 12,5.5 C12,5.22385763 11.7761424,5 11.5,5 L4.5,5 Z M4.5,8 C4.22385763,8 4,8.22385763 4,8.5 C4,8.77614237 4.22385763,9 4.5,9 L11.5,9 C11.7761424,9 12,8.77614237 12,8.5 C12,8.22385763 11.7761424,8 11.5,8 L4.5,8 Z M4.5,11 C4.22385763,11 4,11.2238576 4,11.5 C4,11.7761424 4.22385763,12 4.5,12 L11.5,12 C11.7761424,12 12,11.7761424 12,11.5 C12,11.2238576 11.7761424,11 11.5,11 L4.5,11 Z M5.5,0 L10.5,0 C10.7761424,-5.07265313e-17 11,0.223857625 11,0.5 L11,0.5 C11,0.776142375 10.7761424,1 10.5,1 L5.5,1 C5.22385763,1 5,0.776142375 5,0.5 L5,0.5 L5,0.5 C5,0.223857625 5.22385763,5.07265313e-17 5.5,0 Z" id="Combined-Shape" fill="#838DB0"></path>
        </g>
    </g>
</svg>