<?xml version="1.0" encoding="UTF-8"?>
<svg width="12px" height="12px" viewBox="0 0 12 12" version="1.1" xmlns="http://www.w3.org/2000/svg" xmlns:xlink="http://www.w3.org/1999/xlink">
    <!-- Generator: Sketch 46.2 (44496) - http://www.bohemiancoding.com/sketch -->
    <title>icon_warning</title>
    <desc>Created with Sketch.</desc>
    <defs></defs>
    <g id="Symbols" stroke="none" stroke-width="1" fill="none" fill-rule="evenodd">
        <g id="icon_warning" fill-rule="nonzero" fill="#6E5A40">
            <g id="icon" transform="translate(1.000000, 0.000000)">
                <path d="M0.0110429448,11.990625 C0.0785276074,10.9232143 0.214723926,9.48214286 0.515337423,8.15892857 C0.57791411,7.81741071 0.8,7.53080357 0.807361963,7.52008929 C0.835582822,7.31785714 3.11288344,7.31651786 3.11288344,7.31651786 L3.48957055,7.27767857 C3.43558282,7.64196429 3.39509202,8.19508929 3.53865031,8.67053571 C3.72515337,9.29464286 4.02208589,9.91339286 4.42576687,10.2816964 L4.51165644,8.625 L5.28834356,8.625 L5.42208589,10.1785714 C5.70429448,9.73794643 6.03312883,9.04419643 6.06748466,8.16026786 C6.09447853,7.46919643 6.25276074,7.153125 6.38895706,7.00714286 C7.33251534,7.04866071 8.51533742,7.2375 8.99018405,7.52142857 C9.44294479,7.79196429 9.58527607,9.48214286 9.99509202,11.9919643 L0.0110429448,11.9919643 L0.0110429448,11.990625 L0.0110429448,11.990625 Z" id="Shape"></path>
                <path d="M5.19141104,8.38660714 L4.70429448,8.38660714 L4.31411043,8.03035714 L4.8993865,7.2 L5.48343558,7.9125 L5.19141104,8.38660714 Z M7.77668712,1.33125 C7.54355828,0.822321429 6.18895706,0.0589285714 4.71165644,0.00669642857 C3.23435583,-0.046875 1.66993865,0.889285714 1.68220859,1.57366071 C1.69447853,2.25669643 2.46993865,2.55133929 2.46993865,2.55133929 C2.42944785,2.68392857 2.45030675,3.19821429 2.45030675,3.19821429 C2.45030675,3.19821429 2.48588957,3.26919643 2.55337423,3.36830357 C2.32515337,6.65357143 4.95705521,6.70982143 4.95705521,6.70982143 C7.23803681,6.45133929 7.05644172,3.74732143 7.03435583,3.35625 C7.02576687,3.21294643 7.00981595,3.09910714 6.99018405,2.99732143 C7.01840491,2.77633929 6.9398773,2.54866071 6.9398773,2.54866071 C7.27239264,2.40267857 8.01104294,1.84017857 7.77668712,1.33125 Z M4.33865031,1.07544643 C4.33619632,1.05401786 4.33251534,1.03258929 4.33251534,1.00982143 C4.33251534,0.732589286 4.55582822,0.507589286 4.83190184,0.507589286 C5.10797546,0.507589286 5.33128834,0.732589286 5.33128834,1.00982143 C5.33128834,1.04464286 5.32760736,1.07946429 5.3202454,1.11294643 C5.46871166,1.09821429 5.62944785,1.08482143 5.77546012,1.08214286 C5.77546012,1.08214286 5.3595092,1.29375 5.12269939,1.41830357 C5.08711656,1.44375 5.04907975,1.46383929 5.00736196,1.47991071 C5.00490798,1.48125 5.00122699,1.48392857 4.99754601,1.48526786 C4.99754601,1.48526786 4.98404908,1.48928571 4.96196319,1.49330357 C4.9202454,1.50535714 4.87607362,1.51339286 4.83067485,1.51339286 C4.82208589,1.51339286 4.81349693,1.51071429 4.80490798,1.51071429 C4.69447853,1.51071429 4.55460123,1.48660714 4.44171779,1.38348214 C4.44171779,1.38348214 4.27116564,1.25625 3.88588957,1.08080357 C3.88711656,1.08080357 4.09202454,1.05267857 4.33865031,1.07544643 L4.33865031,1.07544643 Z M6.56319018,2.51919643 L2.78527607,2.51919643 L2.78527607,2.03169643 L6.56319018,2.03169643 L6.56319018,2.51919643 Z" id="Shape"></path>
            </g>
        </g>
    </g>
</svg>