<?xml version="1.0" encoding="UTF-8"?>
<svg width="12px" height="12px" viewBox="0 0 12 12" version="1.1" xmlns="http://www.w3.org/2000/svg" xmlns:xlink="http://www.w3.org/1999/xlink">
    <!-- Generator: Sketch 42 (36781) - http://www.bohemiancoding.com/sketch -->
    <title>icon_close</title>
    <desc>Created with Sketch.</desc>
    <defs></defs>
    <g id="官网价格" stroke="none" stroke-width="1" fill="none" fill-rule="evenodd">
        <g id="01-03_账户一览_余额提示" transform="translate(-1248.000000, -78.000000)" fill="#FFFFFF">
            <g id="-tishi1" transform="translate(160.000000, 64.000000)">
                <path d="M1088.85257,14 C1088.91196,14.0290731 1088.96733,14.0680064 1089.01604,14.116714 L1093.96793,19.068613 L1098.91983,14.116714 C1098.96839,14.0681545 1099.02296,14.0292414 1099.08119,14 L1099.64374,14 C1099.70483,14.0303353 1099.76229,14.0711069 1099.81353,14.1223428 C1100.06187,14.3706837 1100.06027,14.7749261 1099.81916,15.0160359 L1094.86726,19.9679348 L1099.81916,24.9198338 C1100.06439,25.165066 1100.0636,25.5634546 1099.81353,25.8135268 C1099.56519,26.0618677 1099.16094,26.0602654 1098.91983,25.8191557 L1093.96793,20.8672567 L1089.01604,25.8191557 C1088.7708,26.0643878 1088.37242,26.0635991 1088.12234,25.8135268 C1088.07085,25.7620291 1088.0301,25.7038273 1088,25.6417665 L1088,25.0832952 C1088.02907,25.0239064 1088.06801,24.9685414 1088.11671,24.9198338 L1093.06861,19.9679348 L1088.11671,15.0160359 C1088.06815,14.9674763 1088.02924,14.9129116 1088,14.8546823 L1088,14.2921338 C1088.03034,14.2310407 1088.07111,14.1735788 1088.12234,14.1223428 C1088.17384,14.070845 1088.23204,14.0300951 1088.2941,14 L1088.85257,14 Z" id="icon_close"></path>
            </g>
        </g>
    </g>
</svg>