<svg width="80" height="80" viewBox="0 0 80 80" xmlns="http://www.w3.org/2000/svg">
	<title>F8FC5501-83FA-42E4-8053-3AECC9043816</title>
	<g fill="none" fill-rule="evenodd">
		<path d="M80 40.494C80 17.908 62.092 0 39.506 0 17.908 0 0 17.908 0 40.494 0 62.092 17.908 80 39.506 80 62.092 80 80 62.092 80 40.494z" fill="#2FCE6F"/>
		<path d="M20.554 43.062a1.232 1.232 0 0 1-.103-1.535L21.573 40a.978.978 0 0 1 1.389-.204l9.022 6.915c.876.671 2.274.642 3.12-.063l24.44-20.36c.426-.356 1.093-.325 1.479.055l.9.89a.98.98 0 0 1-.011 1.405L34.99 55.133a1.978 1.978 0 0 1-2.812-.04L20.554 43.062z" fill="#FFF"/>
	</g>
</svg>